<svg width="19" height="18" viewBox="0 0 19 18" fill="none" xmlns="http://www.w3.org/2000/svg">
<path fill-rule="evenodd" clip-rule="evenodd" d="M16.8 8C16.8 11.3137 14.1137 14 10.8 14C7.48629 14 4.8 11.3137 4.8 8C4.8 4.68629 7.48629 2 10.8 2C14.1137 2 16.8 4.68629 16.8 8ZM18.8 8C18.8 12.4183 15.2183 16 10.8 16C8.95277 16 7.25178 15.3739 5.89763 14.3224L2.21597 18.0041L0.801758 16.5898L4.48268 12.9089C3.42809 11.5537 2.8 9.8502 2.8 8C2.8 3.58172 6.38172 0 10.8 0C15.2183 0 18.8 3.58172 18.8 8Z" fill="white"/>
</svg>
